<svg width="19" height="16" viewBox="0 0 19 16" fill="none" xmlns="http://www.w3.org/2000/svg">
<path opacity="0.496326" d="M3.3125 0.9375H1.0625C0.746094 0.9375 0.5 1.21875 0.5 1.5V3.75C0.5 4.06641 0.746094 4.3125 1.0625 4.3125H3.3125C3.59375 4.3125 3.875 4.06641 3.875 3.75V1.5C3.875 1.21875 3.59375 0.9375 3.3125 0.9375ZM3.3125 6.5625H1.0625C0.746094 6.5625 0.5 6.84375 0.5 7.125V9.375C0.5 9.69141 0.746094 9.9375 1.0625 9.9375H3.3125C3.59375 9.9375 3.875 9.69141 3.875 9.375V7.125C3.875 6.84375 3.59375 6.5625 3.3125 6.5625ZM3.3125 12.1875H1.0625C0.746094 12.1875 0.5 12.4688 0.5 12.75V15C0.5 15.3164 0.746094 15.5625 1.0625 15.5625H3.3125C3.59375 15.5625 3.875 15.3164 3.875 15V12.75C3.875 12.4688 3.59375 12.1875 3.3125 12.1875ZM17.9375 7.40625H6.6875C6.37109 7.40625 6.125 7.6875 6.125 7.96875V8.53125C6.125 8.84766 6.37109 9.09375 6.6875 9.09375H17.9375C18.2188 9.09375 18.5 8.84766 18.5 8.53125V7.96875C18.5 7.6875 18.2188 7.40625 17.9375 7.40625ZM17.9375 13.0312H6.6875C6.37109 13.0312 6.125 13.3125 6.125 13.5938V14.1562C6.125 14.4727 6.37109 14.7188 6.6875 14.7188H17.9375C18.2188 14.7188 18.5 14.4727 18.5 14.1562V13.5938C18.5 13.3125 18.2188 13.0312 17.9375 13.0312ZM17.9375 1.78125H6.6875C6.37109 1.78125 6.125 2.0625 6.125 2.34375V2.90625C6.125 3.22266 6.37109 3.46875 6.6875 3.46875H17.9375C18.2188 3.46875 18.5 3.22266 18.5 2.90625V2.34375C18.5 2.0625 18.2188 1.78125 17.9375 1.78125Z" fill="#666666"/>
</svg>
