<svg width="23" height="21" viewBox="0 0 23 21" fill="none" xmlns="http://www.w3.org/2000/svg">
<path d="M21.7734 3H5.875L5.52344 1.28125C5.44531 0.851562 5.05469 0.5 4.625 0.5H0.71875C0.445312 0.5 0.25 0.734375 0.25 0.96875V1.90625C0.25 2.17969 0.445312 2.375 0.71875 2.375H3.84375L6.53906 16.2812C6.10938 16.75 5.875 17.3359 5.875 18C5.875 19.4062 6.96875 20.5 8.375 20.5C9.74219 20.5 10.875 19.4062 10.875 18C10.875 17.5703 10.7188 17.1406 10.5234 16.75H16.1875C15.9922 17.1406 15.875 17.5703 15.875 18C15.875 19.4062 16.9688 20.5 18.375 20.5C19.7422 20.5 20.875 19.4062 20.875 18C20.875 17.2969 20.5625 16.6719 20.0938 16.2031L20.1328 16.0469C20.25 15.4609 19.8203 14.875 19.1953 14.875H8.17969L7.82812 13H20.0156C20.4844 13 20.8359 12.7266 20.9531 12.2969L22.7109 4.17188C22.8281 3.58594 22.3984 3 21.7734 3ZM8.375 18.9375C7.82812 18.9375 7.4375 18.5469 7.4375 18C7.4375 17.4922 7.82812 17.0625 8.375 17.0625C8.88281 17.0625 9.3125 17.4922 9.3125 18C9.3125 18.5469 8.88281 18.9375 8.375 18.9375ZM18.375 18.9375C17.8281 18.9375 17.4375 18.5469 17.4375 18C17.4375 17.4922 17.8281 17.0625 18.375 17.0625C18.8828 17.0625 19.3125 17.4922 19.3125 18C19.3125 18.5469 18.8828 18.9375 18.375 18.9375ZM19.2734 11.125H7.4375L6.22656 4.875H20.6406L19.2734 11.125Z" fill="white"/>
</svg>
